# xmcd
#
# Track frame offsets: 
#        150
#        14922
#        26287
#        38005
#        51732
#        67075
#        79872
#        89725
#        108072
#        118072
#        137250
#
# Disc length: 2022 seconds
#
# Revision: 10
# Processed by: cddbd v1.5.2PL0 Copyright (c) Steve Scherf et al.
# Submitted via: ExactAudioCopyFreeDBPlugin 1.0
#
DISCID=9507e40b
DTITLE=BR5-49 - BR5-49
DYEAR=1996
DGENRE=Country
TTITLE0=Even If It's Wrong
TTITLE1=Cherokee Boogie
TTITLE2=Honkey Tonk Song
TTITLE3=Lifetime To Prove
TTITLE4=Little Ramona (Gone Hillbilly Nuts)
TTITLE5=Crazy Arms
TTITLE6=I Ain't Never
TTITLE7=Chains Of This Town
TTITLE8=Are You Gettin' Tired Of Me
TTITLE9=Hickory Wind
TTITLE10=One Long Saturday Night
EXTD=YEAR: 1996 ID3G: 2
EXTT0=
EXTT1=
EXTT2=
EXTT3=
EXTT4=
EXTT5=
EXTT6=
EXTT7=
EXTT8=
EXTT9=
EXTT10=
PLAYORDER=
